<?xml version="1.0" encoding="UTF-8"?>
<svg id="Layer_1" data-name="Layer 1" xmlns="http://www.w3.org/2000/svg" viewBox="0 0 776.63 240.73">
  <defs>
    <style>
      .cls-1 {
        fill: #fff;
      }

      .cls-2 {
        fill: #7a7a7a;
      }
    </style>
  </defs>
  <g>
    <path class="cls-2" d="M233.87,200.29h-11.56v12.68h12.89v3.93h-16.49v-35.59h15.84v3.93h-12.24v11.13h11.56v3.93Z"/>
    <path class="cls-2" d="M239.94,198.36c0-2.55-.05-4.86-.16-7h3.14l.19,4.44h.1c1.15-2.55,3.04-5.07,6.62-5.07,2.87,0,5,2.43,5.86,5.53h.08c.65-1.52,1.43-2.65,2.25-3.46,1.29-1.33,2.66-2.07,4.73-2.07,2.54,0,6.89,2.09,6.89,11.77v14.41h-3.52v-13.93c0-5.48-1.7-8.31-4.65-8.31-2.23,0-3.91,2.11-4.59,4.3-.19.67-.34,1.52-.34,2.34v15.6h-3.52v-14.85c0-4.49-1.67-7.39-4.43-7.39-2.47,0-4.19,2.6-4.84,4.8-.2.69-.31,1.52-.31,2.32v15.12h-3.52v-18.54Z"/>
    <path class="cls-2" d="M275.79,199.8c0-3.03-.05-5.82-.16-8.44h3.24l.21,4.73h.08c1.51-3.24,4.06-5.36,7.71-5.36,5.07,0,8.99,5.38,8.99,12.91,0,9.11-4.65,13.9-9.63,13.9-2.81,0-5.41-1.48-6.75-4.38h-.08v14.31h-3.61v-27.66ZM279.4,206.17c0,.62.06,1.23.15,1.82.64,3.11,2.99,5.83,6.01,5.83,4.08,0,6.65-3.84,6.65-9.93,0-5.03-2.35-9.39-6.46-9.39-2.7,0-5.27,2.22-6.09,6.1-.12.59-.26,1.28-.26,1.87v3.71Z"/>
    <path class="cls-2" d="M319.83,203.82c0,9.32-5.41,13.72-10.57,13.72-5.78,0-10.19-5.34-10.19-13.16,0-8.29,4.57-13.65,10.53-13.65s10.23,5.68,10.23,13.09ZM302.77,204.21c0,6.06,3.02,9.77,6.63,9.77s6.73-3.56,6.73-9.96c0-4.46-2-9.73-6.61-9.73s-6.75,4.77-6.75,9.92Z"/>
    <path class="cls-2" d="M325.57,191.36l2.82,13.12c.61,2.89,1.11,5.52,1.55,8.15h.08c.47-2.55,1.16-5.26,1.88-8.13l3.44-13.13h3.12l3.28,12.96c.75,3.09,1.36,5.8,1.84,8.31h.08c.39-2.55.95-5.26,1.63-8.31l3.04-12.96h3.56l-6.64,25.54h-3.38l-3.14-12.12c-.77-2.98-1.39-5.64-1.91-8.67h-.08c-.54,3.1-1.2,5.84-1.96,8.67l-3.35,12.12h-3.38l-6.13-25.54h3.66Z"/>
    <path class="cls-2" d="M357.18,205.13c.08,5.76,3.3,8.66,7.23,8.66,2.88,0,4.55-.65,6.01-1.43l.65,3.41c-1.27.72-3.56,1.76-7.11,1.76-6.31,0-10.24-5.3-10.24-12.91s3.68-13.89,9.86-13.89c7.02,0,8.68,7.92,8.68,12.26,0,.97-.05,1.67-.14,2.14h-14.94ZM368.76,201.68c.03-2.2-.73-7.56-5.46-7.56-4.07,0-5.75,4.42-6.08,7.56h11.53Z"/>
    <path class="cls-2" d="M376.95,199.77c0-3.3-.04-5.88-.16-8.41h3.16l.13,5.35h.13c.99-3.76,3.26-5.98,5.77-5.98.41,0,.72.04,1.08.16v4.44c-.42-.12-.82-.17-1.37-.17-2.63,0-4.46,2.5-4.98,6.15-.09.64-.15,1.4-.15,2.12v13.48h-3.61v-17.13Z"/>
    <path class="cls-2" d="M395.24,183.94c0,1.57-.87,2.97-2.33,2.97-1.35,0-2.22-1.4-2.22-2.97s.93-2.97,2.29-2.97,2.25,1.34,2.26,2.97ZM391.15,216.9v-25.54h3.61v25.54h-3.61Z"/>
    <path class="cls-2" d="M401.05,198.36c0-2.55-.05-4.86-.16-7h3.21l.21,4.58h.1c.98-2.51,3.43-5.21,6.98-5.21,2.62,0,7.45,1.95,7.45,11.58v14.59h-3.61v-14.15c0-4.49-1.41-8.09-5.01-8.09-2.62,0-4.59,2.42-5.3,4.97-.16.55-.27,1.38-.27,2.11v15.16h-3.61v-18.54Z"/>
    <path class="cls-2" d="M443.11,191.36c-.11,1.82-.16,3.83-.16,6.67v15.01c0,5.64-.99,9.51-3.01,11.88-2.12,2.49-5.09,3.18-7.6,3.18s-5.38-.79-7.11-2.39l.93-3.7c1.45,1.25,3.65,2.35,6.33,2.35,3.93,0,6.92-2.63,6.92-9.33v-2.93h-.08c-1.18,2.53-3.49,4.7-6.89,4.7-5.23,0-9-5.52-9-12.45,0-8.41,4.56-13.63,9.51-13.63,3.76,0,5.83,2.44,6.78,4.78h.08l.14-4.14h3.19ZM439.34,201.83c0-.8-.05-1.5-.21-2.15-.74-3.03-2.75-5.29-5.6-5.29-3.69,0-6.47,3.67-6.47,9.7,0,4.48,2.07,9.1,6.43,9.1,2.57,0,4.76-2.24,5.55-5.17.19-.73.3-1.68.3-2.52v-3.67Z"/>
    <path class="cls-2" d="M459.54,191.36l4.73,15.24c.48,1.59,1.04,3.7,1.38,5.19h.1c.39-1.52.84-3.49,1.36-5.34l4.29-15.09h3.92l-5.94,18.79c-2.91,9.57-4.74,13.47-7.16,15.86-1.85,1.89-3.64,2.55-4.54,2.68l-.78-4.02c.87-.27,2.06-.87,3.16-1.96.99-.9,2.33-2.73,3.31-5.46.18-.44.29-.81.29-1.07,0-.24-.07-.63-.29-1.27l-7.81-23.55h3.98Z"/>
    <path class="cls-2" d="M497.52,203.82c0,9.32-5.41,13.72-10.57,13.72-5.78,0-10.19-5.34-10.19-13.16,0-8.29,4.57-13.65,10.53-13.65s10.23,5.68,10.23,13.09ZM480.46,204.21c0,6.06,3.02,9.77,6.63,9.77s6.72-3.56,6.72-9.96c0-4.46-2-9.73-6.61-9.73s-6.75,4.77-6.75,9.92Z"/>
    <path class="cls-2" d="M519.75,209.9c0,2.63.05,4.94.16,7h-3.21l-.18-4.68h-.1c-.98,2.32-3.19,5.31-7.08,5.31-2.88,0-7.24-1.83-7.24-11.65v-14.52h3.61v13.63c0,5.15,1.35,8.57,4.85,8.57,2.51,0,4.42-2.16,5.23-4.54.2-.67.37-1.51.37-2.42v-15.24h3.61v18.54Z"/>
    <path class="cls-2" d="M526.06,199.77c0-3.3-.04-5.88-.16-8.41h3.16l.13,5.35h.13c.99-3.76,3.26-5.98,5.77-5.98.41,0,.72.04,1.08.16v4.44c-.42-.12-.82-.17-1.37-.17-2.63,0-4.46,2.5-4.98,6.15-.09.64-.15,1.4-.15,2.12v13.48h-3.61v-17.13Z"/>
    <path class="cls-2" d="M549.26,181.78c2.43-.45,5.3-.79,8.41-.79,5.65,0,9.7,1.77,12.33,5.07,2.49,3.05,3.84,7.01,3.84,12.17s-1.33,9.89-4.05,13.45c-2.79,3.55-7.43,5.57-13.3,5.57-2.88,0-5.18-.13-7.22-.41v-35.06ZM552.87,213.18c1.02.22,2.57.25,4.23.25,8.73.03,12.95-6.21,12.95-15,.05-8.22-4.01-13.65-12.27-13.65-2.21,0-3.82.27-4.91.56v27.84Z"/>
    <path class="cls-2" d="M582.62,183.94c0,1.57-.87,2.97-2.33,2.97-1.35,0-2.22-1.4-2.22-2.97s.93-2.97,2.29-2.97,2.25,1.34,2.26,2.97ZM578.54,216.9v-25.54h3.61v25.54h-3.61Z"/>
    <path class="cls-2" d="M606.55,191.36c-.11,1.82-.16,3.83-.16,6.67v15.01c0,5.64-.99,9.51-3.01,11.88-2.12,2.49-5.09,3.18-7.6,3.18s-5.38-.79-7.11-2.39l.93-3.7c1.45,1.25,3.65,2.35,6.33,2.35,3.93,0,6.92-2.63,6.92-9.33v-2.93h-.08c-1.18,2.53-3.49,4.7-6.89,4.7-5.23,0-9-5.52-9-12.45,0-8.41,4.56-13.63,9.51-13.63,3.76,0,5.83,2.44,6.78,4.78h.08l.14-4.14h3.19ZM602.78,201.83c0-.8-.05-1.5-.21-2.15-.74-3.03-2.75-5.29-5.6-5.29-3.69,0-6.47,3.67-6.47,9.7,0,4.48,2.07,9.1,6.43,9.1,2.57,0,4.76-2.24,5.55-5.17.19-.73.3-1.68.3-2.52v-3.67Z"/>
    <path class="cls-2" d="M616.5,183.94c0,1.57-.87,2.97-2.33,2.97-1.35,0-2.22-1.4-2.22-2.97s.93-2.97,2.29-2.97,2.25,1.34,2.26,2.97ZM612.41,216.9v-25.54h3.61v25.54h-3.61Z"/>
    <path class="cls-2" d="M626.63,183.83v7.54h5.44v3.66h-5.44v13.29c0,3.13.62,5.24,2.84,5.24,1.04,0,1.79-.18,2.28-.4l.17,3.66c-.72.39-1.92.72-3.39.72-1.73,0-3.15-.79-4.01-2.11-1.02-1.49-1.42-3.92-1.42-6.75v-13.66h-3.17v-3.66h3.17v-6.33l3.54-1.21Z"/>
    <path class="cls-2" d="M648.06,216.9l-.34-3.4h-.1c-1.12,2-3.43,4.03-6.53,4.03-4.3,0-6.28-3.92-6.28-7.34,0-6.12,4.2-9.71,12.61-9.6v-.45c0-1.62-.36-5.95-4.79-5.92-1.98,0-4.11.78-5.59,2.1l-.84-3.17c1.85-1.56,4.35-2.43,6.93-2.43,6.52,0,7.88,6,7.88,10.91v9.05c0,2.27.09,4.43.32,6.22h-3.27ZM647.49,203.92c-4.5-.15-9.02.92-9.02,5.66,0,2.96,1.58,4.43,3.55,4.43,2.92,0,4.66-2.38,5.28-4.43.13-.5.19-1.02.19-1.46v-4.2Z"/>
    <path class="cls-2" d="M657.09,179.09h3.61v37.81h-3.61v-37.81Z"/>
    <path class="cls-2" d="M681.15,216.9l-9.62-35.59h3.9l4.66,17.83c1.32,5.06,2.37,9.14,3.18,13.15h.08c.86-3.96,2.08-8.28,3.46-13.04l5.16-17.95h3.84l-10.64,35.59h-4.02Z"/>
    <path class="cls-2" d="M702.14,183.94c0,1.57-.87,2.97-2.33,2.97-1.35,0-2.22-1.4-2.22-2.97s.93-2.97,2.29-2.97,2.25,1.34,2.26,2.97ZM698.05,216.9v-25.54h3.61v25.54h-3.61Z"/>
    <path class="cls-2" d="M707.47,212.01c1.17.97,3.22,1.98,5.12,1.98,2.81,0,4.02-1.75,4.02-3.83,0-2.34-1.17-3.45-3.92-4.57-3.78-1.51-5.5-4.12-5.49-7.23,0-4.1,2.57-7.63,7.06-7.63,2.1,0,3.96.72,5.12,1.66l-.88,3.48c-.74-.6-2.34-1.62-4.39-1.62-2.2,0-3.4,1.57-3.4,3.59,0,2.25,1.34,3.18,4.05,4.34,3.66,1.55,5.36,3.73,5.38,7.63,0,4.33-2.64,7.73-7.62,7.73-2.33,0-4.39-.77-5.91-1.88l.88-3.65Z"/>
    <path class="cls-2" d="M729.13,183.94c0,1.57-.87,2.97-2.33,2.97-1.35,0-2.22-1.4-2.22-2.97s.93-2.97,2.29-2.97,2.25,1.34,2.26,2.97ZM725.04,216.9v-25.54h3.61v25.54h-3.61Z"/>
    <path class="cls-2" d="M754.12,203.82c0,9.32-5.41,13.72-10.57,13.72-5.78,0-10.19-5.34-10.19-13.16,0-8.29,4.57-13.65,10.53-13.65s10.23,5.68,10.23,13.09ZM737.06,204.21c0,6.06,3.02,9.77,6.63,9.77s6.72-3.56,6.72-9.96c0-4.46-2-9.73-6.61-9.73s-6.75,4.77-6.75,9.92Z"/>
    <path class="cls-2" d="M758.84,198.36c0-2.55-.05-4.86-.16-7h3.21l.21,4.58h.1c.98-2.51,3.43-5.21,6.98-5.21,2.62,0,7.45,1.95,7.45,11.58v14.59h-3.61v-14.15c0-4.49-1.41-8.09-5.01-8.09-2.62,0-4.59,2.42-5.3,4.97-.16.55-.27,1.38-.27,2.11v15.16h-3.61v-18.54Z"/>
  </g>
  <path d="M235.54,128.05l-4.44,21.44h-12.63l18.29-82.25h15.21l17.01,82.25h-12.73l-4.37-21.44h-16.35ZM250.53,117.83l-3.44-18.88c-.98-5.37-2.08-12.97-2.96-18.72h-.35c-.91,5.8-2.13,13.65-3.12,18.78l-3.6,18.82h13.48Z"/>
  <path d="M313.02,148.17c-2.41,1.19-6.73,2.04-12.1,2.04-18.77,0-29.48-15.32-29.48-40.72,0-31.65,16.7-42.99,31.33-42.99,5.35,0,9.11,1.06,10.75,2.09l-2.4,11.03c-1.94-.91-3.96-1.69-7.82-1.69-8.96,0-18.1,8.19-18.1,30.65s8.29,30.06,18.18,30.06c3.06,0,6.16-.69,8.11-1.45l1.53,10.97Z"/>
  <path d="M353.61,112h-19.57v26.18h22.19v11.3h-35.21v-82.25h33.76v11.3h-20.74v22.58h19.57v10.89Z"/>
  <path d="M381.87,135.58c3.07,1.85,8.41,3.28,12.75,3.28,8.02,0,12.4-4.7,12.4-11.43s-4.05-10.39-10.77-15.02c-9.09-5.83-15.5-14.02-15.5-22.91,0-12.86,8.73-23,24.09-23,5.3,0,10.09,1.57,12.28,2.98l-2.42,11.18c-2.23-1.47-5.72-2.81-10.16-2.81-7.4,0-10.92,5.03-10.92,9.97,0,6.38,3.29,9.28,11.67,14.68,10.46,6.76,14.61,14.74,14.61,23.59,0,14.71-10.59,24.12-25.29,24.12-6.18,0-12.35-1.75-14.91-3.44l2.18-11.2Z"/>
  <path d="M468.34,119.64c0,23.96-12.34,30.82-21.38,30.82-12.6,0-21.2-10.54-21.2-30.54,0-21.46,10.54-30.82,21.64-30.82,12.46,0,20.94,10.96,20.94,30.54ZM438.76,119.71c0,10,1.69,20.69,8.62,20.69,6.48,0,7.97-11.73,7.97-20.69s-1.48-20.56-8.21-20.56-8.38,11.94-8.38,20.56Z"/>
  <path d="M476.53,65.03h13.03v84.45h-13.03v-84.45Z"/>
  <path d="M540.93,132.22c0,6.45.3,12.22.49,17.27h-11.29l-.77-6.24h-.24c-2.33,3.51-7.02,7.21-13.28,7.21-10.89,0-15.23-8.22-15.23-23.68v-36.7h13.03v35.12c0,8.46,1.53,14.36,6.86,14.36,3.99,0,6.03-3.47,6.68-5.8.45-1.35.73-3.19.73-5.16v-38.52h13.02v42.14Z"/>
  <path d="M567.53,74.16v15.91h11.52v9.45h-11.52v30.81c0,7.28,2.82,9.13,6.08,9.13,1.53,0,2.75-.12,4.02-.37l.26,10.14c-1.97.61-4.82,1-8.51,1-4.22,0-7.92-1.05-10.52-3.7-2.87-2.93-4.37-7.23-4.37-16.06v-30.94h-7.11v-9.45h7.11v-12.59l13.03-3.32Z"/>
  <path d="M599.04,74.51c.07,4.47-2.94,7.5-7.2,7.5-3.79,0-6.84-3.03-6.77-7.5-.07-4.63,3.11-7.57,6.96-7.57,4.07,0,7.01,2.94,7.01,7.57ZM585.65,149.48v-59.41h13.03v59.41h-13.03Z"/>
  <path d="M649.72,119.64c0,23.96-12.34,30.82-21.38,30.82-12.6,0-21.2-10.54-21.2-30.54,0-21.46,10.54-30.82,21.64-30.82,12.46,0,20.94,10.96,20.94,30.54ZM620.14,119.71c0,10,1.69,20.69,8.62,20.69,6.48,0,7.97-11.73,7.97-20.69s-1.48-20.56-8.21-20.56-8.38,11.94-8.38,20.56Z"/>
  <path d="M656.91,106.82c0-6.72-.3-11.48-.49-16.74h11.29l.66,7h.25c2.82-4.76,7.82-7.97,14.04-7.97,9.91,0,15.18,7.69,15.18,21.47v38.92h-13.02v-37.68c0-5.94-1.26-11.73-6.93-11.73-3.23,0-6.13,2.48-7.28,7.27-.38,1.31-.66,3.22-.66,5.4v36.74h-13.03v-42.67Z"/>
  <path d="M707.66,137.18c2.23,1.41,6.3,3.12,10.24,3.12,4.64,0,7.49-2.48,7.49-6.8,0-3.72-1.73-6.17-7.24-9.64-8.83-5.26-12.04-10.97-12.04-17.01,0-10.23,7.46-17.75,18.16-17.75,4.81,0,8.54,1.36,11.4,2.9l-2.67,9.62c-2.26-1.43-4.93-2.53-8.12-2.53-4.5,0-6.72,2.99-6.72,6.18s1.45,5.08,7.15,8.71c7.9,4.72,12.12,10.57,12.12,17.99,0,12.08-8.45,18.25-19.63,18.25-4.67,0-10.07-1.34-12.72-3.42l2.58-9.62Z"/>
  <g>
    <polygon points="171.37 240.73 69.15 183.7 69.15 0 171.37 57.04 171.37 240.73"/>
    <polygon class="cls-1" points="91.13 44.65 47 44.65 0 180.45 24.3 180.45 37.34 141.5 37.36 141.5 43.97 121.84 43.96 121.84 69.15 47.51 91.79 114.77 91.79 114.77 91.85 114.95 94.17 121.84 94.17 121.84 100.77 141.5 100.78 141.5 113.82 180.45 138.13 180.45 91.13 44.65"/>
    <polygon points="69.06 44.65 47 44.65 0 180.45 24.3 180.45 37.34 141.5 37.36 141.5 43.97 121.84 43.96 121.84 69.06 47.77 69.06 44.65"/>
  </g>
</svg>